<?xml version="1.0" encoding="UTF-8" standalone="no"?>
<svg width="967.60718" height="194.73393" viewBox="0 0 1451.4108 292.1009" version="1.1" id="svg4" sodipodi:docname="onebitflix.svg" inkscape:version="1.1.1 (3bf5ae0d25, 2021-09-20)" inkscape:export-filename="C:\Users\INFORMATICA\Desktop\onebitflix.png" inkscape:export-xdpi="96" inkscape:export-ydpi="96" xmlns:inkscape="http://www.inkscape.org/namespaces/inkscape" xmlns:sodipodi="http://sodipodi.sourceforge.net/DTD/sodipodi-0.dtd" xmlns="http://www.w3.org/2000/svg" xmlns:svg="http://www.w3.org/2000/svg">
  <defs id="defs8"/>
  <sodipodi:namedview id="namedview6" pagecolor="#505050" bordercolor="#eeeeee" borderopacity="1" inkscape:pageshadow="0" inkscape:pageopacity="0" inkscape:pagecheckerboard="0" showgrid="false" scale-x="1.5" inkscape:zoom="0.56298828" inkscape:cx="812.62793" inkscape:cy="-80.818734" inkscape:window-width="1366" inkscape:window-height="705" inkscape:window-x="-8" inkscape:window-y="-8" inkscape:window-maximized="1" inkscape:current-layer="svg4" fit-margin-top="0" fit-margin-left="0" fit-margin-right="0" fit-margin-bottom="0"/>
  <g id="g688" transform="translate(-3.0000013,-1.175995)">
    <path id="path39341" style="fill:#ff0043;fill-opacity:1;stroke-width:1" d="M 180.02881,2.535449 V 279.27959 c 14.59401,-2.162 28.6468,-4.32626 44.05079,-5.94727 V 122.26007 l 49.45899,144.85546 c 16.215,-2.16 31.88994,-2.96981 47.29395,-5.6748 V 2.535449 H 277.32081 V 159.55791 L 221.1089,2.535449 Z m 182.6924,0 V 257.9251 l 119.7246,-9.45995 v -41.61623 c -25.673,0.811 -51.07741,2.97569 -76.48242,4.59669 V 147.1214 c 16.21601,-0.81101 38.64597,-0.81153 57.83496,-0.81153 v -43.23926 c -15.40399,0 -41.07796,0.81152 -57.83496,0.81152 V 45.777639 h 76.48242 V 2.535449 Z"/>
    <g aria-label="B" id="text10459" style="font-size:350.319px;line-height:1.25;font-family:'Bebas Neue';-inkscape-font-specification:'Bebas Neue';fill:#ff0043;stroke-width:3.64915" transform="translate(-66.296824,-59.275571)">
      <path d="m 589.61686,60.451566 h 58.15296 c 19.85141,0 34.33126,4.67092 43.43955,14.01276 9.10829,9.108294 13.66244,23.237825 13.66244,42.388594 v 9.80894 c 0,12.61148 -2.10191,22.8875 -6.30574,30.82807 -3.97028,7.94056 -10.15925,13.66244 -18.5669,17.16563 v 0.70064 c 19.15077,6.53929 28.72615,23.58814 28.72615,51.14657 v 21.01914 c 0,18.91723 -3.42869,35.2953 -15.06371,43.43956 -8.46695,5.92668 -23.17297,8.09839 -42.02657,10.00344 l -62.01818,4.70996 z m 53.59881,99.840914 c 7.70702,0 13.4289,-1.98514 17.16563,-5.95542 3.97028,-3.97029 5.95542,-10.62635 5.95542,-19.96819 v -13.66244 c 0,-8.87475 -1.63482,-15.29726 -4.90446,-19.26754 -3.0361,-3.970283 -7.94057,-5.955424 -14.7134,-5.955424 h -18.56691 v 64.809014 z m 7.00638,110.35049 c 6.77283,0 11.79407,-1.7516 15.06372,-5.25479 3.26964,-3.73673 4.90446,-10.04248 4.90446,-18.91723 V 225.1015 c 0,-11.21021 -1.98514,-18.91723 -5.95542,-23.12106 -3.73673,-4.43737 -10.04248,-6.65606 -18.91723,-6.65606 h -17.16563 v 75.31859 z" id="path18782" sodipodi:nodetypes="cscsscccssscccscsscsccsscsscsccs"/>
    </g>
    <path id="rect43356" style="fill:#ff0043;fill-opacity:1;stroke:none;stroke-width:0.794326;stroke-opacity:1" d="M 683.17041,2.535449 V 237.91167 c 13.7651,-0.50202 28.0418,-0.51139 42.3282,-0.51145 V 2.535449 Z"/>
    <path id="rect49420" style="fill:#ff0043;fill-opacity:1;stroke:none;stroke-width:1.60733;stroke-opacity:1" d="m 888.46251,2.535449 v 41.56375 h -44.8623 V 239.80152 c -14.051,-0.51808 -28.6453,-0.51815 -43.2393,-0.51815 V 44.099199 h -44.8623 V 2.535449 Z" sodipodi:nodetypes="ccccccccc"/>
    <path id="rect53028" style="fill:#ff0043;fill-opacity:1;stroke:none;stroke-width:1.70108;stroke-opacity:1" d="M 921.46256,2.535449 V 242.2542 h 42.43352 v -98.10351 h 59.18562 V 100.91142 H 963.89608 V 45.777639 h 78.37502 V 2.535449 Z m 147.83494,0 V 245.2249 c 39.457,0.813 78.102,3.24374 116.7481,5.67774 v -42.70312 c -24.0541,-1.34901 -48.9148,-3.24324 -73.5088,-3.78224 V 2.535449 Z m 153.2344,0 V 253.87333 c 13.783,0.81201 28.3748,1.62417 42.4277,3.24317 V 2.535449 Z m 79.4561,0 50.2675,129.993161 -55.6699,126.75 c 15.672,2.162 30.8044,2.97273 46.4824,5.67774 l 31.6172,-73.50879 31.0781,79.99218 c 16.216,2.703 32.4305,5.67785 48.6475,7.83984 L 1399.5495,134.15166 1454.4108,2.535449 h -47.294 l -30.2695,72.7002 -28.3769,-72.7002 z"/>
    <g aria-label="O" id="text4352" style="font-size:405.175px;line-height:1.25;font-family:'Bebas Neue';-inkscape-font-specification:'Bebas Neue';fill:#ff0043;stroke-width:4.22057" transform="translate(3,-0.33304424)">
      <path d="m 67.664224,293.60995 c -21.879449,0 -38.626682,-6.21268 -50.241698,-18.63805 C 5.8075095,262.54653 1.2817383e-6,244.98895 1.2817383e-6,222.29915 V 73.194754 C 1.2817383e-6,50.504955 5.8075095,32.947372 17.422526,20.522005 29.037542,8.0966388 45.784775,1.8839557 67.664224,1.8839557 c 21.879451,0 38.626686,6.2126831 50.241696,18.6380493 11.61502,12.425367 17.42253,29.98295 17.42253,52.672749 V 222.29915 c 0,22.6898 -4.80909,41.26224 -17.42253,52.67275 -8.41889,7.61599 -15.69672,12.08209 -26.329597,15.56311 -6.203603,2.03095 -16.323079,3.07494 -23.912099,3.07494 z m 0,-40.5175 c 15.39665,0 23.094975,-9.31903 23.094975,-27.95708 V 70.358529 c 0,-18.63805 -7.698325,-27.957075 -23.094975,-27.957075 -15.396649,0 -23.094974,9.319025 -23.094974,27.957075 V 225.13537 c 0,18.63805 7.698325,27.95708 23.094974,27.95708 z" id="path22" sodipodi:nodetypes="sssssssssssssssssss"/>
    </g>
  </g>
</svg>